# xmcd CD database file
#
# Track frame offsets:
#	150
#	13716
#	27985
#	40036
#	53335
#	64074
#	72436
#	87052
#	99521
#	109368
#
# Disc length: 1541 seconds
#
# Revision: 0
# Processed by: cddbd v1.5.2PL0 Copyright (c) Steve Scherf et al.
# Submitted via: CDex 2.19
#
DISCID=7906030a
DTITLE=Various Artist - Country Hits of the 1970s [CD1]
DYEAR=1900
DGENRE=Country
TTITLE0=Heartbreak Hotel - Willie Nelson
TTITLE1=Hello Darlin - Conway Twitty
TTITLE2=Carolyn - Merle Haggard
TTITLE3=Before the Next Teardrop Falls - Freddy Fender
TTITLE4=Your the Best Thing that Ever Happened to Me - Ray Price
TTITLE5=Behind Closed Door - Charlie Rich
TTITLE6=The Lord Knows I'm Drinking - Cal Smith
TTITLE7=The Happiest Girl in the Whole USA - Donna Fargo
TTITLE8=It Only Hurts for a Little While - Margo Smith
TTITLE9=Fifteen Years Ago - Conway Twitty
EXTD=
EXTT0=
EXTT1=
EXTT2=
EXTT3=
EXTT4=
EXTT5=
EXTT6=
EXTT7=
EXTT8=
EXTT9=
PLAYORDER=
